<?xml version="1.0" standalone="no"?>
<!DOCTYPE svg PUBLIC "-//W3C//DTD SVG 20010904//EN"
 "http://www.w3.org/TR/2001/REC-SVG-20010904/DTD/svg10.dtd">
<svg version="1.0" xmlns="http://www.w3.org/2000/svg"
 width="867.000000pt" height="867.000000pt" viewBox="0 0 867.000000 867.000000"
 preserveAspectRatio="xMidYMid meet">
<metadata>
Created by potrace 1.14, written by Peter Selinger 2001-2017
</metadata>
<g transform="translate(0.000000,867.000000) scale(0.100000,-0.100000)"
fill="#000000" stroke="none">
<path d="M1768 7822 c-63 -3 -69 -5 -90 -35 -12 -18 -30 -41 -40 -52 -9 -11
-166 -211 -348 -445 -183 -234 -342 -437 -354 -451 -150 -186 -681 -875 -680
-884 1 -7 35 -54 76 -106 69 -88 388 -495 485 -619 23 -30 120 -154 215 -276
95 -121 252 -322 348 -445 96 -123 209 -267 251 -320 l77 -96 726 0 c399 0
727 3 727 6 1 3 2 130 3 281 l1 275 -509 0 -509 0 -71 90 c-40 49 -144 182
-231 295 -88 113 -166 212 -172 220 -61 74 -543 694 -543 698 0 4 308 402 319
412 3 3 28 34 55 70 27 36 73 94 101 130 29 36 136 173 239 305 212 272 222
285 266 340 l32 40 511 5 512 5 0 273 c0 151 -2 277 -5 280 -5 7 -1255 10
-1392 4z"/>
<path d="M3165 7040 l0 -220 337 0 337 0 113 -146 c62 -80 121 -156 132 -167
10 -12 30 -38 45 -57 14 -19 46 -60 69 -90 24 -30 49 -62 55 -70 64 -83 192
-246 197 -250 3 -3 18 -22 33 -43 28 -36 28 -44 1 -77 -7 -8 -74 -94 -149
-190 -76 -96 -148 -188 -161 -205 -224 -285 -308 -393 -320 -410 -14 -19 -27
-20 -352 -20 l-337 0 -1 -205 c0 -113 3 -212 7 -220 6 -13 71 -15 506 -14 274
1 501 2 505 3 4 0 28 29 55 64 26 34 52 67 58 74 13 16 8 9 166 213 178 228
446 571 462 590 11 14 249 320 270 347 6 8 -31 63 -119 175 -70 90 -147 188
-170 218 -24 30 -121 154 -216 276 -95 121 -247 316 -338 432 l-165 212 -510
0 -510 0 0 -220z"/>
<path d="M2419 6728 c-128 -163 -204 -260 -308 -393 -56 -71 -114 -145 -129
-164 -103 -130 -162 -207 -162 -212 0 -6 113 -153 295 -384 202 -258 297 -380
330 -423 21 -28 42 -53 45 -53 3 -1 153 -2 333 -3 210 -1 331 3 335 9 8 12 10
344 2 346 -3 1 -91 2 -197 3 -105 1 -193 3 -196 6 -2 3 -32 41 -66 85 -74 96
-80 103 -215 275 -99 127 -104 136 -91 157 8 12 96 125 195 252 l181 231 197
2 197 3 0 175 0 175 -337 3 -336 2 -73 -92z"/>
<path d="M3165 6311 c0 -82 4 -153 8 -157 4 -4 38 -8 74 -8 l67 -1 74 -94 73
-93 -28 -37 c-15 -20 -30 -38 -33 -41 -3 -3 -23 -29 -44 -57 -37 -52 -39 -53
-89 -54 -29 -1 -62 0 -74 1 -27 2 -25 12 -27 -167 -1 -121 1 -143 14 -144 8
-1 97 -2 197 -3 181 -1 182 -1 200 23 14 18 314 403 365 467 5 8 -58 97 -188
263 l-196 251 -197 0 -197 0 1 -149z"/>
<path d="M6311 3669 c-285 -56 -519 -278 -566 -539 -38 -204 -18 -370 62 -523
46 -88 171 -218 259 -269 217 -126 526 -134 749 -20 83 43 206 161 247 238
l28 52 -78 51 c-43 28 -81 51 -84 51 -4 0 -22 -28 -41 -63 -46 -81 -121 -156
-194 -193 -52 -26 -67 -29 -153 -29 -118 1 -169 23 -250 104 -100 101 -142
224 -146 422 -4 279 74 459 231 531 40 19 67 23 140 23 78 0 97 -4 147 -28 71
-35 137 -98 178 -171 18 -31 36 -56 41 -56 4 0 45 27 89 60 l80 61 -29 42
c-71 104 -196 197 -319 238 -54 17 -94 22 -207 24 -77 2 -160 -1 -184 -6z"/>
<path d="M17 3652 c-16 -3 -17 -55 -17 -693 l0 -689 445 0 445 0 0 93 0 93
-227 0 c-126 -1 -239 0 -253 2 l-25 4 1 201 c1 111 2 205 3 210 0 4 102 7 226
7 l224 0 0 90 c0 63 -4 90 -12 91 -7 0 -109 2 -227 2 l-214 2 -1 200 0 200
238 0 c151 0 237 4 238 10 5 65 2 168 -5 173 -10 5 -810 9 -839 4z"/>
<path d="M980 3648 c0 -3 55 -104 121 -225 67 -120 134 -240 149 -268 32 -58
61 -110 101 -181 l28 -50 0 -275 c0 -151 0 -298 1 -326 l0 -53 195 0 195 0 0
336 0 336 39 71 c21 40 48 90 61 112 93 164 279 503 282 514 2 11 -15 14 -87
13 -49 0 -93 -1 -96 -1 -4 -1 -51 -81 -104 -178 -54 -98 -118 -215 -143 -261
-25 -45 -49 -79 -53 -75 -3 5 -64 121 -134 258 -70 138 -129 252 -131 253 -5
7 -424 7 -424 0z"/>
<path d="M2335 3652 l-40 -3 2 -677 c1 -372 2 -683 2 -689 1 -10 97 -13 446
-13 l445 0 0 93 0 93 -237 -1 c-131 0 -245 1 -253 3 -13 3 -15 33 -14 205 1
111 2 205 3 210 1 4 102 7 225 7 l224 0 1 89 c1 62 -3 90 -12 93 -6 2 -108 3
-224 3 -117 0 -213 2 -214 5 -3 15 -4 377 -2 386 3 7 80 10 234 10 132 -1 233
3 237 8 10 17 8 176 -3 177 -34 2 -787 3 -820 1z"/>
<path d="M3362 3652 l-33 -3 3 -92 3 -91 180 -1 180 0 0 -598 0 -597 196 0
195 0 0 591 c-1 325 1 594 4 598 3 4 79 7 170 6 91 0 172 2 180 6 12 6 15 23
14 81 -1 40 -2 80 -3 88 -1 13 -67 15 -529 15 -290 0 -542 -1 -560 -3z"/>
<path d="M4647 3648 c-7 -4 -10 -210 -9 -675 0 -367 1 -676 1 -685 1 -17 29
-18 446 -18 l445 0 0 93 0 93 -250 0 c-158 -1 -251 3 -253 9 -2 6 -3 100 -2
210 l0 200 227 3 227 2 0 89 c0 75 -3 90 -17 93 -9 2 -110 3 -224 3 -138 -1
-208 2 -211 9 -3 10 -1 336 2 376 1 14 31 16 236 15 150 0 235 4 236 10 3 51
3 168 -1 173 -7 9 -839 9 -853 0z"/>
<path d="M7327 3652 c-9 -2 -17 -11 -18 -20 0 -22 0 -1333 0 -1349 1 -10 47
-13 194 -13 l192 0 0 288 c-1 158 1 294 3 303 3 13 30 15 208 15 l204 0 0
-303 0 -303 194 0 194 0 1 690 0 690 -27 1 c-15 0 -101 1 -192 1 l-165 1 -5
-296 -5 -296 -202 0 c-150 0 -202 2 -205 12 -2 6 -4 139 -3 295 1 247 -1 282
-15 283 -63 2 -340 3 -353 1z"/>
<path d="M3809 1793 c-116 -30 -198 -126 -204 -241 -5 -98 29 -163 105 -202
35 -18 123 -46 171 -55 142 -26 238 -63 269 -103 27 -33 27 -106 0 -150 -63
-103 -331 -110 -413 -11 -13 16 -30 51 -37 77 -6 26 -13 52 -15 57 -1 6 -18 9
-36 8 -19 -1 -45 -2 -58 -2 -22 -1 -23 -3 -16 -48 21 -148 125 -243 284 -262
180 -22 356 42 407 146 26 54 31 163 10 218 -19 49 -71 100 -125 123 -20 8
-83 26 -141 39 -186 43 -236 61 -264 94 -48 57 -26 151 46 194 26 16 51 20
118 20 100 0 129 -6 171 -36 29 -20 69 -93 69 -125 0 -10 15 -14 59 -14 l60 0
-5 38 c-17 119 -75 188 -193 227 -68 22 -189 26 -262 8z"/>
<path d="M5149 1785 c-1 0 -2 -204 -3 -452 l-1 -453 55 0 55 0 0 453 0 452
-53 0 c-28 1 -53 1 -53 0z"/>
<path d="M6475 1781 c-3 -2 -5 -31 -5 -63 l0 -59 57 3 58 3 1 45 c1 68 -4 75
-59 76 -26 0 -50 -2 -52 -5z"/>
<path d="M6151 1720 c-4 -3 -8 -43 -7 -90 l1 -85 -45 -5 c-45 -5 -45 -5 -45
-45 0 -40 0 -40 44 -45 l44 -5 2 -247 c1 -233 2 -249 21 -275 28 -37 60 -53
109 -53 75 0 85 7 85 56 0 43 -1 44 -30 40 -19 -2 -39 3 -52 14 -21 17 -22 25
-23 244 l-1 226 52 0 52 0 4 41 c2 22 2 42 -1 45 -2 2 -26 4 -52 4 -29 0 -48
5 -51 13 -2 6 -4 47 -3 90 1 63 -2 77 -14 78 -62 4 -83 4 -90 -1z"/>
<path d="M4620 1548 c-147 -57 -221 -172 -221 -347 0 -90 5 -115 30 -175 47
-107 144 -168 270 -167 122 1 215 53 261 148 13 26 28 57 33 68 5 10 11 67 13
125 3 86 0 115 -15 158 -33 89 -83 142 -168 179 -43 19 -165 25 -203 11z m163
-102 c91 -39 131 -159 103 -309 -24 -129 -84 -187 -186 -182 -66 3 -110 23
-140 64 -84 118 -52 358 55 418 46 26 119 30 168 9z"/>
<path d="M6904 1539 c-104 -39 -177 -147 -192 -282 -9 -80 4 -178 30 -238 57
-131 212 -191 374 -144 74 21 142 88 175 171 19 50 23 77 23 174 1 131 -14
179 -79 249 -74 80 -221 111 -331 70z m189 -93 c69 -28 108 -102 111 -210 4
-109 -34 -217 -89 -255 -45 -31 -127 -36 -183 -11 -156 70 -143 422 18 483 29
11 111 7 143 -7z"/>
<path d="M7723 1549 c-51 -9 -92 -30 -136 -68 l-33 -29 1 41 0 42 -52 3 -53 3
0 -330 0 -331 55 0 c37 0 55 4 56 13 0 6 1 106 3 222 2 225 6 245 58 291 51
47 124 60 186 35 59 -25 66 -59 68 -316 1 -126 3 -233 3 -237 1 -5 26 -8 56
-8 l56 0 -1 250 c-1 277 -7 313 -61 368 -45 46 -124 66 -206 51z"/>
<path d="M8305 1544 c-27 -7 -53 -13 -57 -14 -3 0 -24 -17 -46 -38 -59 -57
-78 -141 -46 -207 23 -50 80 -81 211 -116 65 -17 131 -38 146 -46 50 -25 56
-92 13 -131 -73 -66 -241 -50 -281 27 -8 17 -15 33 -15 36 1 32 -2 33 -55 33
-30 -1 -55 -4 -55 -7 2 -34 26 -102 50 -136 41 -59 107 -87 214 -87 105 -1
170 20 220 71 52 53 70 121 52 191 -19 74 -60 100 -231 145 -120 32 -161 55
-170 95 -14 63 41 103 138 99 75 -3 123 -30 135 -74 8 -28 11 -30 64 -33 l56
-3 -7 33 c-18 78 -71 137 -142 159 -54 16 -140 18 -194 3z"/>
<path d="M5420 1283 c1 -180 5 -269 13 -293 29 -81 97 -124 197 -124 86 0 129
16 179 66 l41 42 -4 -47 -3 -47 53 0 54 0 0 330 0 330 -55 0 -55 0 -1 -177 c0
-98 -2 -194 -4 -215 -10 -120 -78 -188 -183 -184 -44 1 -57 6 -84 34 l-33 32
-2 188 c-2 103 -3 217 -3 255 l0 67 -55 0 -55 0 0 -257z"/>
<path d="M6470 1210 l0 -331 57 3 58 3 0 310 c1 171 -1 317 -3 326 -3 12 -17
16 -58 18 l-54 2 0 -331z"/>
</g>
</svg>
